<svg xmlns="http://www.w3.org/2000/svg" version="1.1" width="591px" height="255px" style="shape-rendering:geometricPrecision; text-rendering:geometricPrecision; image-rendering:optimizeQuality; fill-rule:evenodd; clip-rule:evenodd" xmlns:xlink="http://www.w3.org/1999/xlink">
<g><path style="opacity:0.948" fill="#07031b" d="M 416.5,-0.5 C 427.167,-0.5 437.833,-0.5 448.5,-0.5C 448.5,2.83333 448.5,6.16667 448.5,9.5C 451.833,9.5 455.167,9.5 458.5,9.5C 458.5,12.8333 458.5,16.1667 458.5,19.5C 461.833,19.5 465.167,19.5 468.5,19.5C 468.5,30.1667 468.5,40.8333 468.5,51.5C 465.167,51.5 461.833,51.5 458.5,51.5C 458.5,78.1667 458.5,104.833 458.5,131.5C 461.5,131.5 464.5,131.5 467.5,131.5C 467.5,128.167 467.5,124.833 467.5,121.5C 505.168,121.333 542.835,121.5 580.5,122C 581.833,131.667 581.833,141.333 580.5,151C 583.817,151.498 587.15,151.665 590.5,151.5C 590.5,162.167 590.5,172.833 590.5,183.5C 587.316,183.394 583.983,183.728 580.5,184.5C 581.411,187.897 581.411,191.063 580.5,194C 556.502,194.5 532.502,194.667 508.5,194.5C 508.5,180.833 508.5,167.167 508.5,153.5C 505.5,153.5 502.5,153.5 499.5,153.5C 499.5,167.167 499.5,180.833 499.5,194.5C 485.833,194.5 472.167,194.5 458.5,194.5C 458.5,204.5 458.5,214.5 458.5,224.5C 441.5,224.5 424.5,224.5 407.5,224.5C 407.5,227.833 407.5,231.167 407.5,234.5C 404.167,234.5 400.833,234.5 397.5,234.5C 397.789,238.106 397.456,241.606 396.5,245C 386.833,245.667 377.167,245.667 367.5,245C 365.232,241.929 364.899,238.596 366.5,235C 362.848,234.501 359.182,234.335 355.5,234.5C 355.5,221.167 355.5,207.833 355.5,194.5C 345.494,194.666 335.494,194.5 325.5,194C 324.167,191 324.167,188 325.5,185C 322.722,183.608 319.722,183.108 316.5,183.5C 316.5,187.167 316.5,190.833 316.5,194.5C 312.833,194.5 309.167,194.5 305.5,194.5C 305.5,207.833 305.5,221.167 305.5,234.5C 302.167,234.5 298.833,234.5 295.5,234.5C 295.5,241.167 295.5,247.833 295.5,254.5C 284.833,254.5 274.167,254.5 263.5,254.5C 263.207,248.107 263.54,241.773 264.5,235.5C 260.893,234.511 257.226,234.177 253.5,234.5C 253.5,221.167 253.5,207.833 253.5,194.5C 236.83,194.333 220.163,194.5 203.5,195C 204.489,208.087 204.823,221.254 204.5,234.5C 200.833,234.5 197.167,234.5 193.5,234.5C 193.5,241.167 193.5,247.833 193.5,254.5C 182.833,254.5 172.167,254.5 161.5,254.5C 162.423,247.891 162.756,241.224 162.5,234.5C 158.833,234.5 155.167,234.5 151.5,234.5C 151.177,221.254 151.511,208.087 152.5,195C 138.833,194.667 125.167,194.333 111.5,194C 110.167,191 110.167,188 111.5,185C 108.194,183.62 104.861,183.12 101.5,183.5C 100.501,173.522 100.168,163.522 100.5,153.5C 97.5,153.5 94.5,153.5 91.5,153.5C 91.5,167.167 91.5,180.833 91.5,194.5C 67.5,194.5 43.5,194.5 19.5,194.5C 19.5,190.833 19.5,187.167 19.5,183.5C 16.1212,183.678 12.9546,183.678 10,183.5C 9.50019,173.506 9.33352,163.506 9.5,153.5C 6.16667,153.5 2.83333,153.5 -0.5,153.5C -0.5,142.833 -0.5,132.167 -0.5,121.5C 2.83333,121.5 6.16667,121.5 9.5,121.5C 9.5,118.167 9.5,114.833 9.5,111.5C 23.5,111.5 37.5,111.5 51.5,111.5C 51.5,114.833 51.5,118.167 51.5,121.5C 85.1683,121.667 118.835,121.5 152.5,121C 151.508,104.244 151.175,87.4105 151.5,70.5C 155.167,70.5 158.833,70.5 162.5,70.5C 162.615,60.4164 162.448,50.4164 162,40.5C 172.418,39.5134 182.918,39.1801 193.5,39.5C 193.5,49.8333 193.5,60.1667 193.5,70.5C 197.167,70.5 200.833,70.5 204.5,70.5C 204.784,73.7766 204.451,76.9433 203.5,80C 220.83,80.4999 238.163,80.6666 255.5,80.5C 255.823,94.0792 255.49,107.579 254.5,121C 271.163,121.5 287.83,121.667 304.5,121.5C 304.5,104.5 304.5,87.5 304.5,70.5C 307.833,70.5 311.167,70.5 314.5,70.5C 314.5,56.8333 314.5,43.1667 314.5,29.5C 325.167,29.5 335.833,29.5 346.5,29.5C 346.5,43.1667 346.5,56.8333 346.5,70.5C 349.833,70.5 353.167,70.5 356.5,70.5C 356.5,73.8333 356.5,77.1667 356.5,80.5C 359.85,80.665 363.183,80.4983 366.5,80C 365.522,73.5898 365.189,67.0898 365.5,60.5C 376.167,60.5 386.833,60.5 397.5,60.5C 397.5,67.1667 397.5,73.8333 397.5,80.5C 400.5,80.5 403.5,80.5 406.5,80.5C 406.5,70.8333 406.5,61.1667 406.5,51.5C 403.167,51.5 399.833,51.5 396.5,51.5C 396.5,40.8333 396.5,30.1667 396.5,19.5C 399.833,19.5 403.167,19.5 406.5,19.5C 406.5,16.1667 406.5,12.8333 406.5,9.5C 409.833,9.5 413.167,9.5 416.5,9.5C 416.5,6.16667 416.5,2.83333 416.5,-0.5 Z"/></g>
<g><path style="opacity:1" fill="#1aa77c" d="M 437.5,10.5 C 434.5,10.5 431.5,10.5 428.5,10.5C 428.81,13.7131 428.477,16.7131 427.5,19.5C 427.5,16.1667 427.5,12.8333 427.5,9.5C 431.042,9.18723 434.375,9.52056 437.5,10.5 Z"/></g>
<g><path style="opacity:1" fill="#1fd091" d="M 437.5,10.5 C 437.5,13.5 437.5,16.5 437.5,19.5C 441.042,19.1872 444.375,19.5206 447.5,20.5C 440.833,20.5 434.167,20.5 427.5,20.5C 427.5,20.1667 427.5,19.8333 427.5,19.5C 428.477,16.7131 428.81,13.7131 428.5,10.5C 431.5,10.5 434.5,10.5 437.5,10.5 Z"/></g>
<g><path style="opacity:1" fill="#27fe7f" d="M 427.5,20.5 C 434.167,20.5 440.833,20.5 447.5,20.5C 447.5,23.8333 447.5,27.1667 447.5,30.5C 450.833,30.5 454.167,30.5 457.5,30.5C 458.479,33.6248 458.813,36.9581 458.5,40.5C 455.167,40.5 451.833,40.5 448.5,40.5C 447.502,67.3282 447.169,94.3282 447.5,121.5C 440.833,121.5 434.167,121.5 427.5,121.5C 427.5,94.5 427.5,67.5 427.5,40.5C 424.167,40.5 420.833,40.5 417.5,40.5C 417.5,37.1667 417.5,33.8333 417.5,30.5C 420.833,30.5 424.167,30.5 427.5,30.5C 427.5,27.1667 427.5,23.8333 427.5,20.5 Z"/></g>
<g><path style="opacity:1" fill="#1fd896" d="M 427.5,20.5 C 427.5,23.8333 427.5,27.1667 427.5,30.5C 424.167,30.5 420.833,30.5 417.5,30.5C 417.5,27.1667 417.5,23.8333 417.5,20.5C 420.833,20.5 424.167,20.5 427.5,20.5 Z"/></g>
<g><path style="opacity:1" fill="#115339" d="M 447.5,20.5 C 448.477,23.2869 448.81,26.2869 448.5,29.5C 451.713,29.19 454.713,29.5233 457.5,30.5C 454.167,30.5 450.833,30.5 447.5,30.5C 447.5,27.1667 447.5,23.8333 447.5,20.5 Z"/></g>
<g><path style="opacity:1" fill="#1fd997" d="M 417.5,30.5 C 417.5,33.8333 417.5,37.1667 417.5,40.5C 414.167,40.5 410.833,40.5 407.5,40.5C 407.5,37.1667 407.5,33.8333 407.5,30.5C 410.833,30.5 414.167,30.5 417.5,30.5 Z"/></g>
<g><path style="opacity:1" fill="#1fd796" d="M 417.5,40.5 C 420.833,40.5 424.167,40.5 427.5,40.5C 427.5,67.5 427.5,94.5 427.5,121.5C 424.167,121.5 420.833,121.5 417.5,121.5C 417.5,94.5 417.5,67.5 417.5,40.5 Z"/></g>
<g><path style="opacity:1" fill="#20da97" d="M 345.5,81.5 C 338.833,81.5 332.167,81.5 325.5,81.5C 325.5,67.8333 325.5,54.1667 325.5,40.5C 328.833,40.5 332.167,40.5 335.5,40.5C 335.5,53.8333 335.5,67.1667 335.5,80.5C 339.042,80.1872 342.375,80.5206 345.5,81.5 Z"/></g>
<g><path style="opacity:1" fill="#146f46" d="M 448.5,40.5 C 448.5,67.8333 448.5,95.1667 448.5,122.5C 437.986,122.828 427.653,122.494 417.5,121.5C 420.833,121.5 424.167,121.5 427.5,121.5C 434.167,121.5 440.833,121.5 447.5,121.5C 447.169,94.3282 447.502,67.3282 448.5,40.5 Z"/></g>
<g><path style="opacity:1" fill="#168064" d="M 183.5,80.5 C 182.506,71.0144 182.173,61.3478 182.5,51.5C 179.5,51.5 176.5,51.5 173.5,51.5C 173.5,61.5 173.5,71.5 173.5,81.5C 173.167,81.5 172.833,81.5 172.5,81.5C 169.5,81.5 166.5,81.5 163.5,81.5C 163.167,81.5 162.833,81.5 162.5,81.5C 165.625,80.5206 168.958,80.1872 172.5,80.5C 172.5,70.5 172.5,60.5 172.5,50.5C 176.167,50.5 179.833,50.5 183.5,50.5C 183.5,60.5 183.5,70.5 183.5,80.5 Z"/></g>
<g><path style="opacity:1" fill="#20db98" d="M 183.5,80.5 C 183.5,80.8333 183.5,81.1667 183.5,81.5C 180.167,81.5 176.833,81.5 173.5,81.5C 173.5,71.5 173.5,61.5 173.5,51.5C 176.5,51.5 179.5,51.5 182.5,51.5C 182.173,61.3478 182.506,71.0144 183.5,80.5 Z"/></g>
<g><path style="opacity:1" fill="#79131b" d="M 386.5,71.5 C 383.5,71.5 380.5,71.5 377.5,71.5C 377.5,78.1667 377.5,84.8333 377.5,91.5C 377.167,91.5 376.833,91.5 376.5,91.5C 376.5,84.5 376.5,77.5 376.5,70.5C 380.042,70.1872 383.375,70.5206 386.5,71.5 Z"/></g>
<g><path style="opacity:1" fill="#ad1a19" d="M 386.5,71.5 C 386.5,78.1667 386.5,84.8333 386.5,91.5C 383.5,91.5 380.5,91.5 377.5,91.5C 377.5,84.8333 377.5,78.1667 377.5,71.5C 380.5,71.5 383.5,71.5 386.5,71.5 Z"/></g>
<g><path style="opacity:1" fill="#27fe80" d="M 325.5,81.5 C 332.167,81.5 338.833,81.5 345.5,81.5C 345.5,94.8333 345.5,108.167 345.5,121.5C 338.833,121.5 332.167,121.5 325.5,121.5C 325.5,108.167 325.5,94.8333 325.5,81.5 Z"/></g>
<g><path style="opacity:1" fill="#1b9c6a" d="M 183.5,81.5 C 183.5,81.1667 183.5,80.8333 183.5,80.5C 186.833,80.5 190.167,80.5 193.5,80.5C 193.5,94.5 193.5,108.5 193.5,122.5C 183.167,122.5 172.833,122.5 162.5,122.5C 162.5,108.833 162.5,95.1667 162.5,81.5C 162.833,81.5 163.167,81.5 163.5,81.5C 163.5,94.8333 163.5,108.167 163.5,121.5C 166.5,121.5 169.5,121.5 172.5,121.5C 179.167,121.5 185.833,121.5 192.5,121.5C 192.5,108.167 192.5,94.8333 192.5,81.5C 189.5,81.5 186.5,81.5 183.5,81.5 Z"/></g>
<g><path style="opacity:1" fill="#27fe80" d="M 172.5,81.5 C 172.833,81.5 173.167,81.5 173.5,81.5C 176.833,81.5 180.167,81.5 183.5,81.5C 186.5,81.5 189.5,81.5 192.5,81.5C 192.5,94.8333 192.5,108.167 192.5,121.5C 185.833,121.5 179.167,121.5 172.5,121.5C 172.5,108.167 172.5,94.8333 172.5,81.5 Z"/></g>
<g><path style="opacity:1" fill="#167c4d" d="M 345.5,81.5 C 346.496,94.9898 346.829,108.656 346.5,122.5C 335.986,122.828 325.653,122.494 315.5,121.5C 318.833,121.5 322.167,121.5 325.5,121.5C 332.167,121.5 338.833,121.5 345.5,121.5C 345.5,108.167 345.5,94.8333 345.5,81.5 Z"/></g>
<g><path style="opacity:1" fill="#1fd898" d="M 163.5,81.5 C 166.5,81.5 169.5,81.5 172.5,81.5C 172.5,94.8333 172.5,108.167 172.5,121.5C 169.5,121.5 166.5,121.5 163.5,121.5C 163.5,108.167 163.5,94.8333 163.5,81.5 Z"/></g>
<g><path style="opacity:1" fill="#1fd797" d="M 325.5,81.5 C 325.5,94.8333 325.5,108.167 325.5,121.5C 322.167,121.5 318.833,121.5 315.5,121.5C 315.5,108.167 315.5,94.8333 315.5,81.5C 318.833,81.5 322.167,81.5 325.5,81.5 Z"/></g>
<g><path style="opacity:1" fill="#a1181a" d="M 223.5,91.5 C 223.5,98.1667 223.5,104.833 223.5,111.5C 230.5,111.5 237.5,111.5 244.5,111.5C 234.347,112.494 224.014,112.828 213.5,112.5C 213.5,105.5 213.5,98.5 213.5,91.5C 216.833,91.5 220.167,91.5 223.5,91.5 Z"/></g>
<g><path style="opacity:1" fill="#fc2525" d="M 223.5,91.5 C 230.5,91.5 237.5,91.5 244.5,91.5C 244.5,98.1667 244.5,104.833 244.5,111.5C 237.5,111.5 230.5,111.5 223.5,111.5C 223.5,104.833 223.5,98.1667 223.5,91.5 Z"/></g>
<g><path style="opacity:1" fill="#8a151e" d="M 376.5,91.5 C 376.5,91.8333 376.5,92.1667 376.5,92.5C 373.5,92.5 370.5,92.5 367.5,92.5C 367.5,102.167 367.5,111.833 367.5,121.5C 370.5,121.5 373.5,121.5 376.5,121.5C 383.167,121.5 389.833,121.5 396.5,121.5C 396.5,111.5 396.5,101.5 396.5,91.5C 397.494,101.653 397.828,111.986 397.5,122.5C 387.167,122.5 376.833,122.5 366.5,122.5C 366.5,112.167 366.5,101.833 366.5,91.5C 369.833,91.5 373.167,91.5 376.5,91.5 Z"/></g>
<g><path style="opacity:1" fill="#fd2525" d="M 376.5,91.5 C 376.833,91.5 377.167,91.5 377.5,91.5C 380.5,91.5 383.5,91.5 386.5,91.5C 389.833,91.5 393.167,91.5 396.5,91.5C 396.5,101.5 396.5,111.5 396.5,121.5C 389.833,121.5 383.167,121.5 376.5,121.5C 376.5,111.833 376.5,102.167 376.5,92.5C 376.5,92.1667 376.5,91.8333 376.5,91.5 Z"/></g>
<g><path style="opacity:1" fill="#aa1a19" d="M 376.5,92.5 C 376.5,102.167 376.5,111.833 376.5,121.5C 373.5,121.5 370.5,121.5 367.5,121.5C 367.5,111.833 367.5,102.167 367.5,92.5C 370.5,92.5 373.5,92.5 376.5,92.5 Z"/></g>
<g><path style="opacity:1" fill="#27fc7f" d="M 40.5,122.5 C 40.5,125.833 40.5,129.167 40.5,132.5C 43.8333,132.5 47.1667,132.5 50.5,132.5C 50.5,135.833 50.5,139.167 50.5,142.5C 47.1667,142.5 43.8333,142.5 40.5,142.5C 40.5,152.833 40.5,163.167 40.5,173.5C 37.1667,173.5 33.8333,173.5 30.5,173.5C 30.5,173.167 30.5,172.833 30.5,172.5C 30.5,162.5 30.5,152.5 30.5,142.5C 27.1667,142.5 23.8333,142.5 20.5,142.5C 20.5,139.167 20.5,135.833 20.5,132.5C 23.8333,132.5 27.1667,132.5 30.5,132.5C 30.5,129.167 30.5,125.833 30.5,122.5C 33.8333,122.5 37.1667,122.5 40.5,122.5 Z"/></g>
<g><path style="opacity:1" fill="#28fe81" d="M 233.5,122.5 C 236.833,122.5 240.167,122.5 243.5,122.5C 243.5,142.5 243.5,162.5 243.5,182.5C 230.167,182.5 216.833,182.5 203.5,182.5C 203.5,179.5 203.5,176.5 203.5,173.5C 210.167,173.5 216.833,173.5 223.5,173.5C 227.167,173.5 230.833,173.5 234.5,173.5C 234.828,162.986 234.494,152.653 233.5,142.5C 230.833,142.5 228.167,142.5 225.5,142.5C 224.833,142.5 224.167,142.5 223.5,142.5C 217.021,141.509 210.354,141.176 203.5,141.5C 203.5,138.5 203.5,135.5 203.5,132.5C 210.5,132.5 217.5,132.5 224.5,132.5C 227.5,132.5 230.5,132.5 233.5,132.5C 233.5,129.167 233.5,125.833 233.5,122.5 Z"/></g>
<g><path style="opacity:1" fill="#1fc98b" d="M 40.5,122.5 C 37.1667,122.5 33.8333,122.5 30.5,122.5C 30.5,125.833 30.5,129.167 30.5,132.5C 27.1667,132.5 23.8333,132.5 20.5,132.5C 20.5,129.167 20.5,125.833 20.5,122.5C 27.1667,121.167 33.8333,121.167 40.5,122.5 Z"/></g>
<g><path style="opacity:1" fill="#1fda98" d="M 233.5,122.5 C 233.5,125.833 233.5,129.167 233.5,132.5C 230.5,132.5 227.5,132.5 224.5,132.5C 224.5,129.167 224.5,125.833 224.5,122.5C 227.5,122.5 230.5,122.5 233.5,122.5 Z"/></g>
<g><path style="opacity:1" fill="#0f4b44" d="M 20.5,122.5 C 20.5,125.833 20.5,129.167 20.5,132.5C 17.1667,132.5 13.8333,132.5 10.5,132.5C 13.2869,131.523 16.2869,131.19 19.5,131.5C 19.19,128.287 19.5233,125.287 20.5,122.5 Z"/></g>
<g><path style="opacity:1" fill="#125d44" d="M 244.5,122.5 C 244.167,122.5 243.833,122.5 243.5,122.5C 240.167,122.5 236.833,122.5 233.5,122.5C 230.5,122.5 227.5,122.5 224.5,122.5C 224.5,125.833 224.5,129.167 224.5,132.5C 217.5,132.5 210.5,132.5 203.5,132.5C 200.167,132.5 196.833,132.5 193.5,132.5C 203.319,131.506 213.319,131.173 223.5,131.5C 223.5,128.167 223.5,124.833 223.5,121.5C 230.687,121.175 237.687,121.509 244.5,122.5 Z"/></g>
<g><path style="opacity:1" fill="#560d1d" d="M 376.5,132.5 C 366.5,132.5 356.5,132.5 346.5,132.5C 343.167,132.5 339.833,132.5 336.5,132.5C 336.5,135.833 336.5,139.167 336.5,142.5C 336.167,142.5 335.833,142.5 335.5,142.5C 335.5,138.833 335.5,135.167 335.5,131.5C 349.344,131.171 363.01,131.504 376.5,132.5 Z"/></g>
<g><path style="opacity:1" fill="#28fd81" d="M 81.5,132.5 C 88.1667,132.5 94.8333,132.5 101.5,132.5C 101.5,135.5 101.5,138.5 101.5,141.5C 94.8333,141.5 88.1667,141.5 81.5,141.5C 81.5,138.5 81.5,135.5 81.5,132.5 Z"/></g>
<g><path style="opacity:1" fill="#27fc80" d="M 132.5,132.5 C 142.5,132.5 152.5,132.5 162.5,132.5C 162.5,135.833 162.5,139.167 162.5,142.5C 159.167,142.5 155.833,142.5 152.5,142.5C 145.833,142.5 139.167,142.5 132.5,142.5C 132.5,141.833 132.167,141.5 131.5,141.5C 132.403,138.609 132.736,135.609 132.5,132.5 Z"/></g>
<g><path style="opacity:1" fill="#21ce83" d="M 243.5,122.5 C 243.833,122.5 244.167,122.5 244.5,122.5C 244.5,142.833 244.5,163.167 244.5,183.5C 227.5,183.5 210.5,183.5 193.5,183.5C 193.5,180.167 193.5,176.833 193.5,173.5C 196.5,173.5 199.5,173.5 202.5,173.5C 202.5,163.167 202.5,152.833 202.5,142.5C 199.5,142.5 196.5,142.5 193.5,142.5C 193.5,139.167 193.5,135.833 193.5,132.5C 196.833,132.5 200.167,132.5 203.5,132.5C 203.5,135.5 203.5,138.5 203.5,141.5C 210.354,141.176 217.021,141.509 223.5,142.5C 216.833,142.5 210.167,142.5 203.5,142.5C 203.5,152.5 203.5,162.5 203.5,172.5C 210.167,172.5 216.833,172.5 223.5,172.5C 223.5,172.833 223.5,173.167 223.5,173.5C 216.833,173.5 210.167,173.5 203.5,173.5C 203.5,176.5 203.5,179.5 203.5,182.5C 216.833,182.5 230.167,182.5 243.5,182.5C 243.5,162.5 243.5,142.5 243.5,122.5 Z"/></g>
<g><path style="opacity:1" fill="#b31b1b" d="M 274.5,132.5 C 274.5,135.5 274.5,138.5 274.5,141.5C 281.687,141.175 288.687,141.509 295.5,142.5C 288.833,142.5 282.167,142.5 275.5,142.5C 275.167,142.5 274.833,142.5 274.5,142.5C 271.167,142.5 267.833,142.5 264.5,142.5C 264.5,139.167 264.5,135.833 264.5,132.5C 267.833,132.5 271.167,132.5 274.5,132.5 Z"/></g>
<g><path style="opacity:1" fill="#fe2525" d="M 274.5,132.5 C 284.5,132.5 294.5,132.5 304.5,132.5C 304.5,135.833 304.5,139.167 304.5,142.5C 301.5,142.5 298.5,142.5 295.5,142.5C 288.687,141.509 281.687,141.175 274.5,141.5C 274.5,138.5 274.5,135.5 274.5,132.5 Z"/></g>
<g><path style="opacity:1" fill="#fe2525" d="M 346.5,132.5 C 356.5,132.5 366.5,132.5 376.5,132.5C 376.5,135.833 376.5,139.167 376.5,142.5C 373.167,142.5 369.833,142.5 366.5,142.5C 360.021,141.509 353.354,141.176 346.5,141.5C 346.5,138.5 346.5,135.5 346.5,132.5 Z"/></g>
<g><path style="opacity:1" fill="#fe2525" d="M 417.5,132.5 C 427.5,132.5 437.5,132.5 447.5,132.5C 447.5,135.833 447.5,139.167 447.5,142.5C 444.167,142.5 440.833,142.5 437.5,142.5C 431.021,141.509 424.354,141.176 417.5,141.5C 417.5,138.5 417.5,135.5 417.5,132.5 Z"/></g>
<g><path style="opacity:1" fill="#1fd494" d="M 10.5,132.5 C 13.8333,132.5 17.1667,132.5 20.5,132.5C 20.5,135.833 20.5,139.167 20.5,142.5C 20.1667,142.5 19.8333,142.5 19.5,142.5C 16.1667,142.5 12.8333,142.5 9.5,142.5C 9.18723,138.958 9.52056,135.625 10.5,132.5 Z"/></g>
<g><path style="opacity:1" fill="#21d790" d="M 488.5,132.5 C 488.5,135.5 488.5,138.5 488.5,141.5C 495.167,141.5 501.833,141.5 508.5,141.5C 508.5,138.5 508.5,135.5 508.5,132.5C 509.479,135.625 509.813,138.958 509.5,142.5C 502.5,142.5 495.5,142.5 488.5,142.5C 485.167,142.5 481.833,142.5 478.5,142.5C 478.5,139.167 478.5,135.833 478.5,132.5C 481.833,132.5 485.167,132.5 488.5,132.5 Z"/></g>
<g><path style="opacity:1" fill="#28fe82" d="M 488.5,132.5 C 495.167,132.5 501.833,132.5 508.5,132.5C 508.5,135.5 508.5,138.5 508.5,141.5C 501.833,141.5 495.167,141.5 488.5,141.5C 488.5,138.5 488.5,135.5 488.5,132.5 Z"/></g>
<g><path style="opacity:1" fill="#21d48e" d="M 539.5,132.5 C 539.5,135.5 539.5,138.5 539.5,141.5C 549.5,141.5 559.5,141.5 569.5,141.5C 569.5,138.5 569.5,135.5 569.5,132.5C 570.479,135.625 570.813,138.958 570.5,142.5C 560.167,142.5 549.833,142.5 539.5,142.5C 536.167,142.5 532.833,142.5 529.5,142.5C 529.5,139.167 529.5,135.833 529.5,132.5C 532.833,132.5 536.167,132.5 539.5,132.5 Z"/></g>
<g><path style="opacity:1" fill="#28fe82" d="M 539.5,132.5 C 549.5,132.5 559.5,132.5 569.5,132.5C 569.5,135.5 569.5,138.5 569.5,141.5C 559.5,141.5 549.5,141.5 539.5,141.5C 539.5,138.5 539.5,135.5 539.5,132.5 Z"/></g>
<g><path style="opacity:1" fill="#21e69f" d="M 122.5,132.5 C 125.833,132.5 129.167,132.5 132.5,132.5C 132.736,135.609 132.403,138.609 131.5,141.5C 128.5,141.5 125.5,141.5 122.5,141.5C 122.5,138.5 122.5,135.5 122.5,132.5 Z"/></g>
<g><path style="opacity:1" fill="#21d48d" d="M 81.5,132.5 C 81.5,135.5 81.5,138.5 81.5,141.5C 88.1667,141.5 94.8333,141.5 101.5,141.5C 95.021,142.491 88.3543,142.824 81.5,142.5C 81.1667,142.5 80.8333,142.5 80.5,142.5C 77.1667,142.5 73.8333,142.5 70.5,142.5C 70.5,139.167 70.5,135.833 70.5,132.5C 74.1667,132.5 77.8333,132.5 81.5,132.5 Z"/></g>
<g><path style="opacity:1" fill="#1aa178" d="M 122.5,132.5 C 122.5,135.5 122.5,138.5 122.5,141.5C 125.5,141.5 128.5,141.5 131.5,141.5C 132.167,141.5 132.5,141.833 132.5,142.5C 128.833,142.5 125.167,142.5 121.5,142.5C 121.187,138.958 121.521,135.625 122.5,132.5 Z"/></g>
<g><path style="opacity:1" fill="#0c342c" d="M 162.5,132.5 C 163.477,135.287 163.81,138.287 163.5,141.5C 166.713,141.19 169.713,141.523 172.5,142.5C 169.167,142.5 165.833,142.5 162.5,142.5C 162.5,139.167 162.5,135.833 162.5,132.5 Z"/></g>
<g><path style="opacity:1" fill="#b81c1c" d="M 346.5,132.5 C 346.5,135.5 346.5,138.5 346.5,141.5C 353.354,141.176 360.021,141.509 366.5,142.5C 359.833,142.5 353.167,142.5 346.5,142.5C 346.167,142.5 345.833,142.5 345.5,142.5C 342.5,142.5 339.5,142.5 336.5,142.5C 336.5,139.167 336.5,135.833 336.5,132.5C 339.833,132.5 343.167,132.5 346.5,132.5 Z"/></g>
<g><path style="opacity:1" fill="#460a1e" d="M 447.5,132.5 C 448.477,135.287 448.81,138.287 448.5,141.5C 451.713,141.19 454.713,141.523 457.5,142.5C 454.167,142.5 450.833,142.5 447.5,142.5C 447.5,139.167 447.5,135.833 447.5,132.5 Z"/></g>
<g><path style="opacity:1" fill="#27fe80" d="M 193.5,142.5 C 196.5,142.5 199.5,142.5 202.5,142.5C 202.5,152.833 202.5,163.167 202.5,173.5C 199.5,173.5 196.5,173.5 193.5,173.5C 193.5,173.167 193.5,172.833 193.5,172.5C 193.5,162.5 193.5,152.5 193.5,142.5 Z"/></g>
<g><path style="opacity:1" fill="#23dd8c" d="M 223.5,142.5 C 224.167,142.5 224.833,142.5 225.5,142.5C 225.5,152.5 225.5,162.5 225.5,172.5C 228.167,172.5 230.833,172.5 233.5,172.5C 233.5,162.5 233.5,152.5 233.5,142.5C 234.494,152.653 234.828,162.986 234.5,173.5C 230.833,173.5 227.167,173.5 223.5,173.5C 223.5,173.167 223.5,172.833 223.5,172.5C 223.5,162.5 223.5,152.5 223.5,142.5 Z"/></g>
<g><path style="opacity:1" fill="#27fe80" d="M 478.5,142.5 C 481.833,142.5 485.167,142.5 488.5,142.5C 488.5,155.833 488.5,169.167 488.5,182.5C 485.167,182.5 481.833,182.5 478.5,182.5C 478.5,169.167 478.5,155.833 478.5,142.5 Z"/></g>
<g><path style="opacity:1" fill="#27fe7f" d="M 529.5,142.5 C 532.833,142.5 536.167,142.5 539.5,142.5C 539.5,145.833 539.5,149.167 539.5,152.5C 536.167,152.5 532.833,152.5 529.5,152.5C 529.5,149.167 529.5,145.833 529.5,142.5 Z"/></g>
<g><path style="opacity:1" fill="#11594d" d="M 19.5,142.5 C 19.8333,142.5 20.1667,142.5 20.5,142.5C 20.5,152.5 20.5,162.5 20.5,172.5C 23.8333,172.5 27.1667,172.5 30.5,172.5C 30.5,172.833 30.5,173.167 30.5,173.5C 30.5,176.833 30.5,180.167 30.5,183.5C 29.5206,180.375 29.1872,177.042 29.5,173.5C 26.1667,173.5 22.8333,173.5 19.5,173.5C 19.5,163.167 19.5,152.833 19.5,142.5 Z"/></g>
<g><path style="opacity:1" fill="#1fd796" d="M 20.5,142.5 C 23.8333,142.5 27.1667,142.5 30.5,142.5C 30.5,152.5 30.5,162.5 30.5,172.5C 27.1667,172.5 23.8333,172.5 20.5,172.5C 20.5,162.5 20.5,152.5 20.5,142.5 Z"/></g>
<g><path style="opacity:1" fill="#1b9c62" d="M 61.5,142.5 C 61.5,155.833 61.5,169.167 61.5,182.5C 64.5,182.5 67.5,182.5 70.5,182.5C 73.8333,182.5 77.1667,182.5 80.5,182.5C 80.5,169.167 80.5,155.833 80.5,142.5C 80.8333,142.5 81.1667,142.5 81.5,142.5C 81.5,156.167 81.5,169.833 81.5,183.5C 74.5,183.5 67.5,183.5 60.5,183.5C 60.171,169.656 60.5043,155.99 61.5,142.5 Z"/></g>
<g><path style="opacity:1" fill="#27fc80" d="M 70.5,142.5 C 73.8333,142.5 77.1667,142.5 80.5,142.5C 80.5,155.833 80.5,169.167 80.5,182.5C 77.1667,182.5 73.8333,182.5 70.5,182.5C 70.5,169.167 70.5,155.833 70.5,142.5 Z"/></g>
<g><path style="opacity:1" fill="#1fd696" d="M 152.5,142.5 C 155.833,142.5 159.167,142.5 162.5,142.5C 162.5,145.833 162.5,149.167 162.5,152.5C 159.167,152.5 155.833,152.5 152.5,152.5C 152.5,149.167 152.5,145.833 152.5,142.5 Z"/></g>
<g><path style="opacity:1" fill="#28fd81" d="M 162.5,142.5 C 165.833,142.5 169.167,142.5 172.5,142.5C 172.5,155.833 172.5,169.167 172.5,182.5C 159.167,182.5 145.833,182.5 132.5,182.5C 129.167,182.5 125.833,182.5 122.5,182.5C 122.81,179.287 122.477,176.287 121.5,173.5C 121.5,173.167 121.5,172.833 121.5,172.5C 121.5,169.5 121.5,166.5 121.5,163.5C 121.5,163.167 121.5,162.833 121.5,162.5C 124.833,162.5 128.167,162.5 131.5,162.5C 131.5,166.167 131.5,169.833 131.5,173.5C 128.833,173.5 126.167,173.5 123.5,173.5C 123.5,176.167 123.5,178.833 123.5,181.5C 126.5,181.5 129.5,181.5 132.5,181.5C 132.5,178.833 132.5,176.167 132.5,173.5C 139.167,173.5 145.833,173.5 152.5,173.5C 155.833,173.5 159.167,173.5 162.5,173.5C 162.5,169.833 162.5,166.167 162.5,162.5C 159.167,162.5 155.833,162.5 152.5,162.5C 145.833,162.5 139.167,162.5 132.5,162.5C 132.28,158.956 132.28,155.622 132.5,152.5C 139.167,152.5 145.833,152.5 152.5,152.5C 155.833,152.5 159.167,152.5 162.5,152.5C 162.5,149.167 162.5,145.833 162.5,142.5 Z"/></g>
<g><path style="opacity:1" fill="#126454" d="M 183.5,142.5 C 183.5,152.5 183.5,162.5 183.5,172.5C 186.833,172.5 190.167,172.5 193.5,172.5C 193.5,172.833 193.5,173.167 193.5,173.5C 193.5,176.833 193.5,180.167 193.5,183.5C 192.521,180.375 192.187,177.042 192.5,173.5C 189.167,173.5 185.833,173.5 182.5,173.5C 182.172,162.986 182.506,152.653 183.5,142.5 Z"/></g>
<g><path style="opacity:1" fill="#06011a" d="M 223.5,142.5 C 223.5,152.5 223.5,162.5 223.5,172.5C 216.833,172.5 210.167,172.5 203.5,172.5C 203.5,162.5 203.5,152.5 203.5,142.5C 210.167,142.5 216.833,142.5 223.5,142.5 Z"/></g>
<g><path style="opacity:1" fill="#1ed495" d="M 225.5,142.5 C 228.167,142.5 230.833,142.5 233.5,142.5C 233.5,152.5 233.5,162.5 233.5,172.5C 230.833,172.5 228.167,172.5 225.5,172.5C 225.5,162.5 225.5,152.5 225.5,142.5 Z"/></g>
<g><path style="opacity:1" fill="#aa1a1a" d="M 304.5,132.5 C 305.479,135.625 305.813,138.958 305.5,142.5C 305.5,152.5 305.5,162.5 305.5,172.5C 308.833,172.5 312.167,172.5 315.5,172.5C 312.375,173.479 309.042,173.813 305.5,173.5C 305.5,176.833 305.5,180.167 305.5,183.5C 291.833,183.5 278.167,183.5 264.5,183.5C 264.5,180.167 264.5,176.833 264.5,173.5C 261.167,173.5 257.833,173.5 254.5,173.5C 254.5,163.167 254.5,152.833 254.5,142.5C 257.833,142.5 261.167,142.5 264.5,142.5C 264.5,152.5 264.5,162.5 264.5,172.5C 267.833,172.5 271.167,172.5 274.5,172.5C 274.5,172.833 274.5,173.167 274.5,173.5C 274.5,176.5 274.5,179.5 274.5,182.5C 284.5,182.5 294.5,182.5 304.5,182.5C 304.5,179.5 304.5,176.5 304.5,173.5C 301.5,173.5 298.5,173.5 295.5,173.5C 295.5,173.167 295.5,172.833 295.5,172.5C 295.5,162.5 295.5,152.5 295.5,142.5C 298.5,142.5 301.5,142.5 304.5,142.5C 304.5,139.167 304.5,135.833 304.5,132.5 Z"/></g>
<g><path style="opacity:1" fill="#0b021b" d="M 275.5,142.5 C 282.167,142.5 288.833,142.5 295.5,142.5C 295.5,152.5 295.5,162.5 295.5,172.5C 288.833,172.5 282.167,172.5 275.5,172.5C 275.5,162.5 275.5,152.5 275.5,142.5 Z"/></g>
<g><path style="opacity:1" fill="#fe2525" d="M 264.5,142.5 C 267.833,142.5 271.167,142.5 274.5,142.5C 274.5,152.5 274.5,162.5 274.5,172.5C 271.167,172.5 267.833,172.5 264.5,172.5C 264.5,162.5 264.5,152.5 264.5,142.5 Z"/></g>
<g><path style="opacity:1" fill="#fd2525" d="M 305.5,142.5 C 308.833,142.5 312.167,142.5 315.5,142.5C 315.5,152.5 315.5,162.5 315.5,172.5C 312.167,172.5 308.833,172.5 305.5,172.5C 305.5,162.5 305.5,152.5 305.5,142.5 Z"/></g>
<g><path style="opacity:1" fill="#a81a1a" d="M 335.5,142.5 C 335.5,152.5 335.5,162.5 335.5,172.5C 338.833,172.5 342.167,172.5 345.5,172.5C 345.5,172.833 345.5,173.167 345.5,173.5C 345.5,176.5 345.5,179.5 345.5,182.5C 355.833,182.5 366.167,182.5 376.5,182.5C 363.01,183.496 349.344,183.829 335.5,183.5C 335.5,180.167 335.5,176.833 335.5,173.5C 332.167,173.5 328.833,173.5 325.5,173.5C 325.5,163.167 325.5,152.833 325.5,142.5C 328.833,142.5 332.167,142.5 335.5,142.5 Z"/></g>
<g><path style="opacity:1" fill="#fd2525" d="M 335.5,142.5 C 335.833,142.5 336.167,142.5 336.5,142.5C 339.5,142.5 342.5,142.5 345.5,142.5C 345.5,152.5 345.5,162.5 345.5,172.5C 342.167,172.5 338.833,172.5 335.5,172.5C 335.5,162.5 335.5,152.5 335.5,142.5 Z"/></g>
<g><path style="opacity:1" fill="#06011b" d="M 346.5,142.5 C 353.167,142.5 359.833,142.5 366.5,142.5C 366.5,152.5 366.5,162.5 366.5,172.5C 359.833,172.5 353.167,172.5 346.5,172.5C 346.5,162.5 346.5,152.5 346.5,142.5 Z"/></g>
<g><path style="opacity:1" fill="#a2191a" d="M 366.5,142.5 C 369.833,142.5 373.167,142.5 376.5,142.5C 376.5,152.5 376.5,162.5 376.5,172.5C 379.833,172.5 383.167,172.5 386.5,172.5C 386.5,162.5 386.5,152.5 386.5,142.5C 387.494,152.653 387.828,162.986 387.5,173.5C 383.833,173.5 380.167,173.5 376.5,173.5C 373.167,173.5 369.833,173.5 366.5,173.5C 366.5,173.167 366.5,172.833 366.5,172.5C 366.5,162.5 366.5,152.5 366.5,142.5 Z"/></g>
<g><path style="opacity:1" fill="#fd2525" d="M 376.5,142.5 C 379.833,142.5 383.167,142.5 386.5,142.5C 386.5,152.5 386.5,162.5 386.5,172.5C 383.167,172.5 379.833,172.5 376.5,172.5C 376.5,162.5 376.5,152.5 376.5,142.5 Z"/></g>
<g><path style="opacity:1" fill="#4e0c1b" d="M 397.5,142.5 C 397.5,152.5 397.5,162.5 397.5,172.5C 400.833,172.5 404.167,172.5 407.5,172.5C 407.5,175.833 407.5,179.167 407.5,182.5C 407.5,182.833 407.5,183.167 407.5,183.5C 406.521,180.375 406.187,177.042 406.5,173.5C 403.167,173.5 399.833,173.5 396.5,173.5C 396.172,162.986 396.506,152.653 397.5,142.5 Z"/></g>
<g><path style="opacity:1" fill="#ac1a1a" d="M 397.5,142.5 C 400.833,142.5 404.167,142.5 407.5,142.5C 407.5,152.5 407.5,162.5 407.5,172.5C 404.167,172.5 400.833,172.5 397.5,172.5C 397.5,162.5 397.5,152.5 397.5,142.5 Z"/></g>
<g><path style="opacity:1" fill="#fe2525" d="M 407.5,142.5 C 410.5,142.5 413.5,142.5 416.5,142.5C 416.5,152.5 416.5,162.5 416.5,172.5C 413.5,172.5 410.5,172.5 407.5,172.5C 407.5,162.5 407.5,152.5 407.5,142.5 Z"/></g>
<g><path style="opacity:1" fill="#06011b" d="M 437.5,142.5 C 437.5,152.5 437.5,162.5 437.5,172.5C 430.833,172.5 424.167,172.5 417.5,172.5C 417.5,162.5 417.5,152.5 417.5,142.5C 424.167,142.5 430.833,142.5 437.5,142.5 Z"/></g>
<g><path style="opacity:1" fill="#1fd998" d="M 61.5,142.5 C 64.5,142.5 67.5,142.5 70.5,142.5C 70.5,155.833 70.5,169.167 70.5,182.5C 67.5,182.5 64.5,182.5 61.5,182.5C 61.5,169.167 61.5,155.833 61.5,142.5 Z"/></g>
<g><path style="opacity:1" fill="#1fda97" d="M 183.5,142.5 C 186.833,142.5 190.167,142.5 193.5,142.5C 193.5,152.5 193.5,162.5 193.5,172.5C 190.167,172.5 186.833,172.5 183.5,172.5C 183.5,162.5 183.5,152.5 183.5,142.5 Z"/></g>
<g><path style="opacity:1" fill="#a1191b" d="M 437.5,142.5 C 440.833,142.5 444.167,142.5 447.5,142.5C 447.5,152.5 447.5,162.5 447.5,172.5C 450.833,172.5 454.167,172.5 457.5,172.5C 457.5,162.5 457.5,152.5 457.5,142.5C 458.494,152.653 458.828,162.986 458.5,173.5C 455.167,173.5 451.833,173.5 448.5,173.5C 448.5,176.833 448.5,180.167 448.5,183.5C 434.833,183.5 421.167,183.5 407.5,183.5C 407.5,183.167 407.5,182.833 407.5,182.5C 410.833,182.5 414.167,182.5 417.5,182.5C 427.5,182.5 437.5,182.5 447.5,182.5C 447.5,179.5 447.5,176.5 447.5,173.5C 437.5,173.5 427.5,173.5 417.5,173.5C 417.5,173.167 417.5,172.833 417.5,172.5C 424.167,172.5 430.833,172.5 437.5,172.5C 437.5,162.5 437.5,152.5 437.5,142.5 Z"/></g>
<g><path style="opacity:1" fill="#fc2525" d="M 447.5,142.5 C 450.833,142.5 454.167,142.5 457.5,142.5C 457.5,152.5 457.5,162.5 457.5,172.5C 454.167,172.5 450.833,172.5 447.5,172.5C 447.5,162.5 447.5,152.5 447.5,142.5 Z"/></g>
<g><path style="opacity:1" fill="#1fd796" d="M 478.5,142.5 C 478.5,155.833 478.5,169.167 478.5,182.5C 481.833,182.5 485.167,182.5 488.5,182.5C 482.021,183.491 475.354,183.824 468.5,183.5C 468.5,169.833 468.5,156.167 468.5,142.5C 471.833,142.5 475.167,142.5 478.5,142.5 Z"/></g>
<g><path style="opacity:1" fill="#1fd998" d="M 529.5,142.5 C 529.5,145.833 529.5,149.167 529.5,152.5C 526.167,152.5 522.833,152.5 519.5,152.5C 519.5,149.167 519.5,145.833 519.5,142.5C 522.833,142.5 526.167,142.5 529.5,142.5 Z"/></g>
<g><path style="opacity:1" fill="#1fd797" d="M 529.5,152.5 C 532.833,152.5 536.167,152.5 539.5,152.5C 539.5,155.833 539.5,159.167 539.5,162.5C 536.167,162.5 532.833,162.5 529.5,162.5C 529.5,159.167 529.5,155.833 529.5,152.5 Z"/></g>
<g><path style="opacity:1" fill="#27fc80" d="M 539.5,152.5 C 549.5,152.5 559.5,152.5 569.5,152.5C 569.5,155.833 569.5,159.167 569.5,162.5C 566.5,162.5 563.5,162.5 560.5,162.5C 553.5,162.5 546.5,162.5 539.5,162.5C 539.5,159.167 539.5,155.833 539.5,152.5 Z"/></g>
<g><path style="opacity:1" fill="#1aa47a" d="M 121.5,162.5 C 121.5,162.833 121.5,163.167 121.5,163.5C 118.5,163.5 115.5,163.5 112.5,163.5C 112.5,166.5 112.5,169.5 112.5,172.5C 115.5,172.5 118.5,172.5 121.5,172.5C 121.5,172.833 121.5,173.167 121.5,173.5C 118.167,173.5 114.833,173.5 111.5,173.5C 111.5,169.833 111.5,166.167 111.5,162.5C 114.833,162.5 118.167,162.5 121.5,162.5 Z"/></g>
<g><path style="opacity:1" fill="#20dc9a" d="M 121.5,163.5 C 121.5,166.5 121.5,169.5 121.5,172.5C 118.5,172.5 115.5,172.5 112.5,172.5C 112.5,169.5 112.5,166.5 112.5,163.5C 115.5,163.5 118.5,163.5 121.5,163.5 Z"/></g>
<g><path style="opacity:1" fill="#090b1b" d="M 132.5,162.5 C 139.167,162.5 145.833,162.5 152.5,162.5C 152.5,165.833 152.5,169.167 152.5,172.5C 145.833,172.5 139.167,172.5 132.5,172.5C 132.5,169.167 132.5,165.833 132.5,162.5 Z"/></g>
<g><path style="opacity:1" fill="#1fd696" d="M 152.5,162.5 C 155.833,162.5 159.167,162.5 162.5,162.5C 162.5,166.167 162.5,169.833 162.5,173.5C 159.167,173.5 155.833,173.5 152.5,173.5C 152.5,173.167 152.5,172.833 152.5,172.5C 152.5,169.167 152.5,165.833 152.5,162.5 Z"/></g>
<g><path style="opacity:1" fill="#29f784" d="M 580.5,163.5 C 580.5,166.5 580.5,169.5 580.5,172.5C 577.167,172.5 573.833,172.5 570.5,172.5C 570.5,169.5 570.5,166.5 570.5,163.5C 573.833,163.5 577.167,163.5 580.5,163.5 Z"/></g>
<g><path style="opacity:1" fill="#640f1f" d="M 274.5,142.5 C 274.833,142.5 275.167,142.5 275.5,142.5C 275.5,152.5 275.5,162.5 275.5,172.5C 282.167,172.5 288.833,172.5 295.5,172.5C 295.5,172.833 295.5,173.167 295.5,173.5C 288.5,173.5 281.5,173.5 274.5,173.5C 274.5,173.167 274.5,172.833 274.5,172.5C 274.5,162.5 274.5,152.5 274.5,142.5 Z"/></g>
<g><path style="opacity:1" fill="#721120" d="M 345.5,142.5 C 345.833,142.5 346.167,142.5 346.5,142.5C 346.5,152.5 346.5,162.5 346.5,172.5C 353.167,172.5 359.833,172.5 366.5,172.5C 366.5,172.833 366.5,173.167 366.5,173.5C 359.5,173.5 352.5,173.5 345.5,173.5C 345.5,173.167 345.5,172.833 345.5,172.5C 345.5,162.5 345.5,152.5 345.5,142.5 Z"/></g>
<g><path style="opacity:1" fill="#135d44" d="M 529.5,162.5 C 532.833,162.5 536.167,162.5 539.5,162.5C 546.5,162.5 553.5,162.5 560.5,162.5C 560.5,166.167 560.5,169.833 560.5,173.5C 550.167,173.5 539.833,173.5 529.5,173.5C 526.167,173.5 522.833,173.5 519.5,173.5C 532.656,172.504 545.99,172.171 559.5,172.5C 559.5,169.5 559.5,166.5 559.5,163.5C 549.319,163.827 539.319,163.494 529.5,162.5 Z"/></g>
<g><path style="opacity:1" fill="#21d087" d="M 569.5,152.5 C 570.479,155.625 570.813,158.958 570.5,162.5C 574.042,162.187 577.375,162.521 580.5,163.5C 577.167,163.5 573.833,163.5 570.5,163.5C 570.5,166.5 570.5,169.5 570.5,172.5C 573.833,172.5 577.167,172.5 580.5,172.5C 577.375,173.479 574.042,173.813 570.5,173.5C 570.5,176.833 570.5,180.167 570.5,183.5C 553.5,183.5 536.5,183.5 519.5,183.5C 519.5,180.167 519.5,176.833 519.5,173.5C 522.833,173.5 526.167,173.5 529.5,173.5C 529.5,176.5 529.5,179.5 529.5,182.5C 542.833,182.5 556.167,182.5 569.5,182.5C 569.5,179.5 569.5,176.5 569.5,173.5C 566.5,173.5 563.5,173.5 560.5,173.5C 560.5,169.833 560.5,166.167 560.5,162.5C 563.5,162.5 566.5,162.5 569.5,162.5C 569.5,159.167 569.5,155.833 569.5,152.5 Z"/></g>
<g><path style="opacity:1" fill="#fe2625" d="M 274.5,173.5 C 281.5,173.5 288.5,173.5 295.5,173.5C 298.5,173.5 301.5,173.5 304.5,173.5C 304.5,176.5 304.5,179.5 304.5,182.5C 294.5,182.5 284.5,182.5 274.5,182.5C 274.5,179.5 274.5,176.5 274.5,173.5 Z"/></g>
<g><path style="opacity:1" fill="#fe2625" d="M 345.5,173.5 C 352.5,173.5 359.5,173.5 366.5,173.5C 369.833,173.5 373.167,173.5 376.5,173.5C 376.5,176.5 376.5,179.5 376.5,182.5C 366.167,182.5 355.833,182.5 345.5,182.5C 345.5,179.5 345.5,176.5 345.5,173.5 Z"/></g>
<g><path style="opacity:1" fill="#fe2625" d="M 417.5,173.5 C 427.5,173.5 437.5,173.5 447.5,173.5C 447.5,176.5 447.5,179.5 447.5,182.5C 437.5,182.5 427.5,182.5 417.5,182.5C 417.5,179.5 417.5,176.5 417.5,173.5 Z"/></g>
<g><path style="opacity:1" fill="#28fe82" d="M 529.5,173.5 C 539.833,173.5 550.167,173.5 560.5,173.5C 563.5,173.5 566.5,173.5 569.5,173.5C 569.5,176.5 569.5,179.5 569.5,182.5C 556.167,182.5 542.833,182.5 529.5,182.5C 529.5,179.5 529.5,176.5 529.5,173.5 Z"/></g>
<g><path style="opacity:1" fill="#20d392" d="M 30.5,173.5 C 33.8333,173.5 37.1667,173.5 40.5,173.5C 40.5,176.5 40.5,179.5 40.5,182.5C 43.8333,182.5 47.1667,182.5 50.5,182.5C 44.021,183.491 37.3543,183.824 30.5,183.5C 30.5,180.167 30.5,176.833 30.5,173.5 Z"/></g>
<g><path style="opacity:1" fill="#1ec68a" d="M 132.5,152.5 C 132.28,155.622 132.28,158.956 132.5,162.5C 132.5,165.833 132.5,169.167 132.5,172.5C 139.167,172.5 145.833,172.5 152.5,172.5C 152.5,172.833 152.5,173.167 152.5,173.5C 145.833,173.5 139.167,173.5 132.5,173.5C 132.5,176.167 132.5,178.833 132.5,181.5C 129.5,181.5 126.5,181.5 123.5,181.5C 123.5,178.833 123.5,176.167 123.5,173.5C 126.167,173.5 128.833,173.5 131.5,173.5C 131.5,169.833 131.5,166.167 131.5,162.5C 128.167,162.5 124.833,162.5 121.5,162.5C 121.5,159.167 121.5,155.833 121.5,152.5C 125.167,152.5 128.833,152.5 132.5,152.5 Z"/></g>
<g><path style="opacity:1" fill="#29fd86" d="M 40.5,173.5 C 43.8333,173.5 47.1667,173.5 50.5,173.5C 50.5,176.5 50.5,179.5 50.5,182.5C 47.1667,182.5 43.8333,182.5 40.5,182.5C 40.5,179.5 40.5,176.5 40.5,173.5 Z"/></g>
<g><path style="opacity:1" fill="#b81c1c" d="M 417.5,132.5 C 417.5,135.5 417.5,138.5 417.5,141.5C 424.354,141.176 431.021,141.509 437.5,142.5C 430.833,142.5 424.167,142.5 417.5,142.5C 417.5,152.5 417.5,162.5 417.5,172.5C 417.5,172.833 417.5,173.167 417.5,173.5C 417.5,176.5 417.5,179.5 417.5,182.5C 414.167,182.5 410.833,182.5 407.5,182.5C 407.5,179.167 407.5,175.833 407.5,172.5C 410.5,172.5 413.5,172.5 416.5,172.5C 416.5,162.5 416.5,152.5 416.5,142.5C 413.5,142.5 410.5,142.5 407.5,142.5C 407.5,139.167 407.5,135.833 407.5,132.5C 410.833,132.5 414.167,132.5 417.5,132.5 Z"/></g>
<g><path style="opacity:1" fill="#199773" d="M 121.5,173.5 C 122.477,176.287 122.81,179.287 122.5,182.5C 125.833,182.5 129.167,182.5 132.5,182.5C 132.5,182.833 132.5,183.167 132.5,183.5C 128.833,183.5 125.167,183.5 121.5,183.5C 121.5,180.167 121.5,176.833 121.5,173.5 Z"/></g>
<g><path style="opacity:1" fill="#1ca15b" d="M 172.5,142.5 C 173.496,155.99 173.829,169.656 173.5,183.5C 159.833,183.5 146.167,183.5 132.5,183.5C 132.5,183.167 132.5,182.833 132.5,182.5C 145.833,182.5 159.167,182.5 172.5,182.5C 172.5,169.167 172.5,155.833 172.5,142.5 Z"/></g>
<g><path style="opacity:1" fill="#199a75" d="M 163.5,193.5 C 163.5,203.5 163.5,213.5 163.5,223.5C 166.5,223.5 169.5,223.5 172.5,223.5C 172.5,223.833 172.5,224.167 172.5,224.5C 169.167,224.5 165.833,224.5 162.5,224.5C 162.172,213.986 162.506,203.653 163.5,193.5 Z"/></g>
<g><path style="opacity:1" fill="#27fe80" d="M 172.5,193.5 C 179.167,193.5 185.833,193.5 192.5,193.5C 192.5,203.5 192.5,213.5 192.5,223.5C 189.287,223.19 186.287,223.523 183.5,224.5C 183.167,224.5 182.833,224.5 182.5,224.5C 179.5,224.5 176.5,224.5 173.5,224.5C 173.167,224.5 172.833,224.5 172.5,224.5C 172.5,224.167 172.5,223.833 172.5,223.5C 172.5,213.5 172.5,203.5 172.5,193.5 Z"/></g>
<g><path style="opacity:1" fill="#1ca15c" d="M 192.5,193.5 C 193.494,203.653 193.828,213.986 193.5,224.5C 190.167,224.5 186.833,224.5 183.5,224.5C 186.287,223.523 189.287,223.19 192.5,223.5C 192.5,213.5 192.5,203.5 192.5,193.5 Z"/></g>
<g><path style="opacity:1" fill="#88151a" d="M 274.5,193.5 C 274.5,193.833 274.5,194.167 274.5,194.5C 271.5,194.5 268.5,194.5 265.5,194.5C 265.5,204.167 265.5,213.833 265.5,223.5C 268.5,223.5 271.5,223.5 274.5,223.5C 274.5,223.833 274.5,224.167 274.5,224.5C 271.167,224.5 267.833,224.5 264.5,224.5C 264.5,214.167 264.5,203.833 264.5,193.5C 267.833,193.5 271.167,193.5 274.5,193.5 Z"/></g>
<g><path style="opacity:1" fill="#aa1a19" d="M 274.5,194.5 C 274.5,204.167 274.5,213.833 274.5,223.5C 271.5,223.5 268.5,223.5 265.5,223.5C 265.5,213.833 265.5,204.167 265.5,194.5C 268.5,194.5 271.5,194.5 274.5,194.5 Z"/></g>
<g><path style="opacity:1" fill="#fd2525" d="M 274.5,193.5 C 281.167,193.5 287.833,193.5 294.5,193.5C 294.5,203.5 294.5,213.5 294.5,223.5C 291.5,223.5 288.5,223.5 285.5,223.5C 281.833,223.5 278.167,223.5 274.5,223.5C 274.5,213.833 274.5,204.167 274.5,194.5C 274.5,194.167 274.5,193.833 274.5,193.5 Z"/></g>
<g><path style="opacity:1" fill="#981721" d="M 294.5,193.5 C 295.494,203.653 295.828,213.986 295.5,224.5C 292.167,224.5 288.833,224.5 285.5,224.5C 285.5,224.167 285.5,223.833 285.5,223.5C 288.5,223.5 291.5,223.5 294.5,223.5C 294.5,213.5 294.5,203.5 294.5,193.5 Z"/></g>
<g><path style="opacity:1" fill="#8d161a" d="M 376.5,193.5 C 376.5,193.833 376.5,194.167 376.5,194.5C 373.5,194.5 370.5,194.5 367.5,194.5C 367.5,204.167 367.5,213.833 367.5,223.5C 370.5,223.5 373.5,223.5 376.5,223.5C 376.5,223.833 376.5,224.167 376.5,224.5C 373.167,224.5 369.833,224.5 366.5,224.5C 366.5,214.167 366.5,203.833 366.5,193.5C 369.833,193.5 373.167,193.5 376.5,193.5 Z"/></g>
<g><path style="opacity:1" fill="#aa1a19" d="M 376.5,194.5 C 376.5,204.167 376.5,213.833 376.5,223.5C 373.5,223.5 370.5,223.5 367.5,223.5C 367.5,213.833 367.5,204.167 367.5,194.5C 370.5,194.5 373.5,194.5 376.5,194.5 Z"/></g>
<g><path style="opacity:1" fill="#fd2525" d="M 376.5,193.5 C 383.167,193.5 389.833,193.5 396.5,193.5C 396.5,203.5 396.5,213.5 396.5,223.5C 393.167,223.5 389.833,223.5 386.5,223.5C 383.167,223.5 379.833,223.5 376.5,223.5C 376.5,213.833 376.5,204.167 376.5,194.5C 376.5,194.167 376.5,193.833 376.5,193.5 Z"/></g>
<g><path style="opacity:1" fill="#27fe80" d="M 427.5,193.5 C 434.167,193.5 440.833,193.5 447.5,193.5C 447.5,200.167 447.5,206.833 447.5,213.5C 440.833,213.5 434.167,213.5 427.5,213.5C 427.5,206.833 427.5,200.167 427.5,193.5 Z"/></g>
<g><path style="opacity:1" fill="#1fd998" d="M 163.5,193.5 C 166.5,193.5 169.5,193.5 172.5,193.5C 172.5,203.5 172.5,213.5 172.5,223.5C 169.5,223.5 166.5,223.5 163.5,223.5C 163.5,213.5 163.5,203.5 163.5,193.5 Z"/></g>
<g><path style="opacity:1" fill="#82131f" d="M 396.5,193.5 C 397.494,203.653 397.828,213.986 397.5,224.5C 394.167,224.5 390.833,224.5 387.5,224.5C 387.5,227.833 387.5,231.167 387.5,234.5C 383.833,234.5 380.167,234.5 376.5,234.5C 376.5,231.167 376.5,227.833 376.5,224.5C 377.477,227.287 377.81,230.287 377.5,233.5C 380.5,233.5 383.5,233.5 386.5,233.5C 386.5,230.167 386.5,226.833 386.5,223.5C 389.833,223.5 393.167,223.5 396.5,223.5C 396.5,213.5 396.5,203.5 396.5,193.5 Z"/></g>
<g><path style="opacity:1" fill="#1fd897" d="M 427.5,193.5 C 427.5,200.167 427.5,206.833 427.5,213.5C 424.167,213.5 420.833,213.5 417.5,213.5C 417.5,206.833 417.5,200.167 417.5,193.5C 420.833,193.5 424.167,193.5 427.5,193.5 Z"/></g>
<g><path style="opacity:1" fill="#ae1a1a" d="M 274.5,224.5 C 274.5,224.167 274.5,223.833 274.5,223.5C 278.167,223.5 281.833,223.5 285.5,223.5C 285.5,223.833 285.5,224.167 285.5,224.5C 284.51,230.645 284.177,236.978 284.5,243.5C 281.5,243.5 278.5,243.5 275.5,243.5C 275.823,236.978 275.49,230.645 274.5,224.5 Z"/></g>
<g><path style="opacity:1" fill="#157b61" d="M 172.5,224.5 C 172.833,224.5 173.167,224.5 173.5,224.5C 173.5,230.833 173.5,237.167 173.5,243.5C 176.5,243.5 179.5,243.5 182.5,243.5C 182.5,237.167 182.5,230.833 182.5,224.5C 182.833,224.5 183.167,224.5 183.5,224.5C 183.5,231.167 183.5,237.833 183.5,244.5C 179.833,244.5 176.167,244.5 172.5,244.5C 172.5,237.833 172.5,231.167 172.5,224.5 Z"/></g>
<g><path style="opacity:1" fill="#1fdc99" d="M 173.5,224.5 C 176.5,224.5 179.5,224.5 182.5,224.5C 182.5,230.833 182.5,237.167 182.5,243.5C 179.5,243.5 176.5,243.5 173.5,243.5C 173.5,237.167 173.5,230.833 173.5,224.5 Z"/></g>
<g><path style="opacity:1" fill="#5f0f1b" d="M 274.5,224.5 C 275.49,230.645 275.823,236.978 275.5,243.5C 278.5,243.5 281.5,243.5 284.5,243.5C 284.177,236.978 284.51,230.645 285.5,224.5C 285.5,231.167 285.5,237.833 285.5,244.5C 281.833,244.5 278.167,244.5 274.5,244.5C 274.5,237.833 274.5,231.167 274.5,224.5 Z"/></g>
<g><path style="opacity:1" fill="#b91c1a" d="M 376.5,224.5 C 376.5,224.167 376.5,223.833 376.5,223.5C 379.833,223.5 383.167,223.5 386.5,223.5C 386.5,226.833 386.5,230.167 386.5,233.5C 383.5,233.5 380.5,233.5 377.5,233.5C 377.81,230.287 377.477,227.287 376.5,224.5 Z"/></g>
</svg>
